<svg xmlns="http://www.w3.org/2000/svg" xmlns:xlink="http://www.w3.org/1999/xlink" viewBox="0 0 262.26 291.35"><defs><style>.cls-1{fill:#e68b61;}.cls-2{fill:#ec7c9b;}.cls-3{fill:#f4a1b7;}.cls-11,.cls-15,.cls-16,.cls-4{fill:none;}.cls-10,.cls-11,.cls-16,.cls-4{stroke:#631f2a;}.cls-11,.cls-4{stroke-width:4px;}.cls-5{fill:#631f2a;}.cls-6{fill:#cfc5bb;}.cls-7{fill:#bab0a6;}.cls-8{fill:#f7ddc4;}.cls-9{fill:#d8c4b2;}.cls-10,.cls-17{fill:#fff;}.cls-10,.cls-11,.cls-16{stroke-linejoin:round;}.cls-10{stroke-width:2.5px;}.cls-11{stroke-linecap:round;}.cls-12{fill:#f9d67b;}.cls-13{clip-path:url(#clip-path);}.cls-14{fill:#f9e5a2;}.cls-16{stroke-width:3px;}</style><clipPath id="clip-path"><path class="cls-1" d="M123,228.09a3,3,0,0,1-2.52,2.3,78,78,0,0,1-14.43,1c2.6-20.4,2.42-41.41.36-62.83,2.9,2,5.54,4,8,6a4.84,4.84,0,0,0-.29,1.62,5,5,0,0,0,7,4.57c.61.61,1.19,1.23,1.75,1.84a4,4,0,0,1,1,2.24C125.84,201.78,125.88,216.45,123,228.09Z"/></clipPath></defs><g id="Layer_2" data-name="Layer 2"><g id="Dibujo"><path class="cls-2" d="M62.79,248.23l27.33,11.71c-.5.44-1,.87-1.55,1.29-12.8,5.42-27.64-.21-28.8-11.22l-.15-.26A29,29,0,0,1,62.79,248.23Z"/><path class="cls-3" d="M88.57,261.23c-8.78,7-21.65,12.33-27.79,9.24-17.68,1.25-14-13.6-1.16-20.72l.15.26C60.93,261,75.77,266.65,88.57,261.23Z"/><path class="cls-4" d="M88.57,261.23c.53-.42,1.05-.85,1.55-1.29L62.79,248.23a29,29,0,0,0-3.17,1.52c-12.8,7.12-16.52,22,1.16,20.72C66.92,273.56,79.79,268.24,88.57,261.23Z"/><path class="cls-5" d="M59.54,270.6a7.15,7.15,0,0,1,.1-2.76,6.59,6.59,0,0,1,1.21-2.53,7.11,7.11,0,0,1,4.44-2.63,10.53,10.53,0,0,0-2.75,3.64,9.57,9.57,0,0,0-.52,4Z"/><path class="cls-5" d="M51.77,269.63a9.7,9.7,0,0,1,.41-3.22,8.26,8.26,0,0,1,1.58-2.93,9.74,9.74,0,0,1,5.39-3.05,14.25,14.25,0,0,0-3.76,4.18,11.89,11.89,0,0,0-1.12,5Z"/><path class="cls-2" d="M199.46,245.81c-1.34,7.32-6.29,13.86-12.71,19.46l-.21-.23c-25.6,14.84-50,14.41-60,1.19a23.13,23.13,0,0,1,3.4-1.85Z"/><path class="cls-3" d="M145.59,287.27c-7.7,2.32-18.17,3.79-23-1.67-4.36-4.88-4.43-13.78,4-19.37,9.91,13.22,34.36,13.65,60-1.19l.21.23C172.27,277.93,150.33,285.84,145.59,287.27Z"/><path class="cls-4" d="M186.75,265.27c6.42-5.6,11.37-12.14,12.71-19.46L130,264.38a23.13,23.13,0,0,0-3.4,1.85c-8.46,5.59-8.39,14.49-4,19.37,4.87,5.46,15.34,4,23,1.67C150.33,285.84,172.27,277.93,186.75,265.27Z"/><path class="cls-5" d="M122,286a12.31,12.31,0,0,1,1.27-3.87,12.61,12.61,0,0,1,2.43-3.26,13.65,13.65,0,0,1,6.89-3.59,18.89,18.89,0,0,0-5.4,4.89,15.48,15.48,0,0,0-1.7,3,20.84,20.84,0,0,0-1,3.28Z"/><path class="cls-5" d="M131.1,289.26a12.41,12.41,0,0,1,2-6.15,8.53,8.53,0,0,1,2.38-2.3,9.19,9.19,0,0,1,2.93-1.21,15.31,15.31,0,0,0-2.15,2.1,9.17,9.17,0,0,0-1.44,2.38,25.55,25.55,0,0,0-1.26,5.47Z"/><path class="cls-5" d="M208.53,223.46a28.59,28.59,0,0,0,8,3.11,14.74,14.74,0,0,0,7.08-.14,13.18,13.18,0,0,0,5.86-3.61A19.39,19.39,0,0,0,233.6,216a23.33,23.33,0,0,0,1.41-8.36,21.59,21.59,0,0,0-.46-4.13c-.07-.32-.16-.67-.27-1l-.31-1.09c-.27-.75-.48-1.5-.81-2.28a89.43,89.43,0,0,0-4.47-9.48c-1.71-3.19-3.58-6.38-5.5-9.57l-5.89-9.69-.37-.61-.44-.75c-.29-.49-.55-1-.81-1.51-.51-1-1-2-1.39-3.1a38.29,38.29,0,0,1,2-31.92,32.47,32.47,0,0,1,8.59-9.83,35,35,0,0,1,11.36-5.69,44.72,44.72,0,0,1,12.1-1.76c2,0,4,0,6,.19s3.92.45,5.85.77a2.5,2.5,0,0,1-.54,5h0c-7.29-.4-14.62.24-20.95,2.8a27.35,27.35,0,0,0-8.41,5.2,23.59,23.59,0,0,0-5.58,7.7,27.3,27.3,0,0,0-1.32,18.65,26.46,26.46,0,0,0,1.64,4.36c.34.69.7,1.35,1.09,2,.21.31.4.64.61.94l.72,1,6.55,9.3c2.19,3.15,4.37,6.36,6.46,9.7a101.25,101.25,0,0,1,5.92,10.68c.46.94.87,2,1.29,3,.21.52.39,1.07.59,1.6s.38,1.08.55,1.68a35.08,35.08,0,0,1,1.3,7.06,38.83,38.83,0,0,1-1.5,14,35.36,35.36,0,0,1-6.84,12.85,29.33,29.33,0,0,1-12.77,8.88,31.85,31.85,0,0,1-15.34,1.27,45.85,45.85,0,0,1-13.34-4.35l-.08,0a9,9,0,1,1,8-16.15Z"/><path class="cls-3" d="M206.23,227.91a33.13,33.13,0,0,0,9.49,3.38,19.21,19.21,0,0,0,9.32-.51,17.88,17.88,0,0,0,7.7-5.06,24,24,0,0,0,4.86-8.44A27.62,27.62,0,0,0,239,207.4a26,26,0,0,0-.67-4.91c-.18-.78-.48-1.62-.72-2.44s-.57-1.64-.93-2.47c-2.73-6.62-6.62-13.08-10.55-19.45l-6-9.6-.38-.61-.39-.66c-.27-.45-.51-.91-.75-1.36-.47-.92-.9-1.86-1.28-2.81a35.17,35.17,0,0,1,1.59-29.29,29.49,29.49,0,0,1,7.78-9,32.68,32.68,0,0,1,10.45-5.31,41.85,41.85,0,0,1,11.4-1.7,62.46,62.46,0,0,1,11.36.85c-7.49-.86-15.25-.65-22.44,1.8a31.53,31.53,0,0,0-9.88,5.44,28.12,28.12,0,0,0-7.08,8.77,32.42,32.42,0,0,0-2.6,22.07,30.69,30.69,0,0,0,4.47,10.37l6.21,9.49c4.09,6.35,8.15,12.78,11.18,19.72.39.86.7,1.75,1,2.63s.62,1.79.86,2.7a27.92,27.92,0,0,1,.88,5.6,31.22,31.22,0,0,1-1.45,11.19,27.59,27.59,0,0,1-5.5,9.83,21.36,21.36,0,0,1-9.31,6.25,23,23,0,0,1-11.21.7,36.89,36.89,0,0,1-10.67-3.72Z"/><path class="cls-2" d="M204.39,231.46a36.89,36.89,0,0,0,10.67,3.72,23,23,0,0,0,11.21-.7,21.36,21.36,0,0,0,9.31-6.25,27.59,27.59,0,0,0,5.5-9.83,31.22,31.22,0,0,0,1.45-11.19,27.92,27.92,0,0,0-.88-5.6c-.24-.91-.57-1.8-.86-2.7s-.66-1.77-1-2.63c-3-6.94-7.09-13.37-11.18-19.72l-6.21-9.49a30.69,30.69,0,0,1-4.47-10.37,32.42,32.42,0,0,1,2.6-22.07,28.12,28.12,0,0,1,7.08-8.77,31.53,31.53,0,0,1,9.88-5.44c7.19-2.45,14.95-2.66,22.44-1.8-7.53-.54-15.22.09-22.11,2.75a30.2,30.2,0,0,0-9.32,5.57,26.64,26.64,0,0,0-6.38,8.51,30.33,30.33,0,0,0-1.86,20.72A29.2,29.2,0,0,0,222,161.1c.36.78.76,1.55,1.19,2.29.23.37.44.74.68,1.1l.75,1.11L231,175c4.24,6.33,8.47,12.72,11.8,20,.43.9.78,1.86,1.17,2.8s.71,1.92,1,3A30.7,30.7,0,0,1,246,207a34.63,34.63,0,0,1-1.48,12.51,31.6,31.6,0,0,1-6.13,11.23,25,25,0,0,1-10.93,7.44,27.1,27.1,0,0,1-13.1.89A40.47,40.47,0,0,1,202.56,235Z"/><path class="cls-6" d="M66.68,56c-.68.74-1.35,1.5-2,2.27-.69-1-1.39-2-2.12-2.93A33.88,33.88,0,0,1,66.68,56Z"/><path class="cls-2" d="M64.68,58.26a86.91,86.91,0,0,1,8.09,15.43L49.21,115.57c-6.84-4.37-14.09-13.7-18.43-24.44C27.29,70,42.15,53.26,62.56,55.33,63.29,56.27,64,57.25,64.68,58.26Z"/><path class="cls-6" d="M49.21,115.57l-1,.56c-9.57-5.88-22.3-19.34-28.59-31.65-7.84-15.33-.92-44.16,17.35-57,16.36-11.5,28.7-.41,33.83,9.16a62.37,62.37,0,0,0,6.75,10.15A59.94,59.94,0,0,0,66.68,56a33.88,33.88,0,0,0-4.12-.66c-7.4-9.58-17-15.07-27.2-4.89-10.92,10.93-10.13,27-4.58,40.69C35.12,101.87,42.37,111.2,49.21,115.57Z"/><path class="cls-7" d="M66.68,56a59.94,59.94,0,0,1,10.84-9.2c4.82,5.81,10.65,10.35,17,11.82L52.05,118.16a28.58,28.58,0,0,1-3.87-2l1-.56L72.77,73.69a86.91,86.91,0,0,0-8.09-15.43C65.33,57.49,66,56.73,66.68,56Z"/><path class="cls-3" d="M62.56,55.33C42.15,53.26,27.29,70,30.78,91.13c-5.55-13.72-6.34-29.76,4.58-40.69C45.52,40.26,55.16,45.75,62.56,55.33Z"/><path class="cls-4" d="M94.56,58.61c-6.39-1.47-12.22-6-17-11.82a62.37,62.37,0,0,1-6.75-10.15C65.64,27.07,53.3,16,36.94,27.48c-18.27,12.84-25.19,41.67-17.35,57,6.29,12.31,19,25.77,28.59,31.65a28.58,28.58,0,0,0,3.87,2"/><path class="cls-5" d="M35.36,50.43a18.16,18.16,0,0,1,5-4.77,13,13,0,0,1,6.93-2.06,15.39,15.39,0,0,1,7.1,1.87,26,26,0,0,1,5.73,4.28,42.51,42.51,0,0,1,4.46,5.34A51.79,51.79,0,0,1,68.07,61a52.93,52.93,0,0,1,4.71,12.72c-2.53-3.79-4.89-7.53-7.4-11.12C64.09,60.8,62.87,59,61.5,57.35a43.9,43.9,0,0,0-4.24-4.75,24,24,0,0,0-4.77-3.84,14.31,14.31,0,0,0-5.41-2.06,12.45,12.45,0,0,0-5.89.71A27.69,27.69,0,0,0,35.36,50.43Z"/><path class="cls-7" d="M203.84,193.72c-9.52-1.55-22.07-16.49-26-24.61-5.22-10.86-5.79-23.18-7.23-35-1.38-11.19-12.14-26.77-20.39-35.61a98.56,98.56,0,0,0,32.31,13.93c-3,31.06-.91,51.63,16.39,72.38a40.19,40.19,0,0,1,5.49,8.58Z"/><path class="cls-6" d="M150.24,98.55c8.25,8.84,19,24.42,20.39,35.61,1.44,11.77,2,24.09,7.23,35,3.91,8.12,16.46,23.06,26,24.61l.59-.28a43,43,0,0,1,3.64,12l-.13,0-76,7c.63-16.77-1-39.06-25.78-47.85-5,1.18-14.16,9.67-16.76,16.28l18.23,15.24c-8.94,1.14-17.41,8.9-23.77,20.76l-27.76,2.56a57.89,57.89,0,0,1,4.33-12.9c5.51-11.93,9-30.48,7.3-46.15-10.58-3.08-21-10.28-29.21-22.43C46,101.41,63.1,71.75,85.26,56.65c-1.54,3.18.56,5.49,4.33,5.76,11.77.85,39.47-1.69,51.45-12.23l.39.15,41.15,61.81,0,.34A98.56,98.56,0,0,1,150.24,98.55Z"/><path class="cls-8" d="M131.94,213.45c0,1-.09,1.92-.14,2.85l-4.12-3.44,3.79-.35C131.63,212.82,131.79,213.13,131.94,213.45Z"/><path class="cls-7" d="M131.47,212.51l.51,0c0,.33,0,.66,0,1C131.79,213.13,131.63,212.82,131.47,212.51Z"/><path class="cls-8" d="M107.67,196.13l20,16.73-43.78,4C90.26,205,98.73,197.27,107.67,196.13Z"/><path class="cls-8" d="M131.94,213.45c4.73,9.66,7.52,22.63,7.59,37A45.43,45.43,0,0,1,129,248.55c-10.16-3.81-23.43-5.72-37.26-4.23a33.9,33.9,0,0,1-16.6-2.75,93,93,0,0,1,8.75-24.68l43.78-4,4.12,3.44C131.85,215.37,131.9,214.42,131.94,213.45Z"/><path class="cls-7" d="M106.2,164.61C131,173.4,132.61,195.69,132,212.46l-.51,0c-4.94-9.62-11.86-15.75-19.94-16.46a18.44,18.44,0,0,0-3.86.08L89.44,180.89C92,174.28,101.24,165.79,106.2,164.61Z"/><path class="cls-8" d="M131.47,212.51l-3.79.35-20-16.73a18.44,18.44,0,0,1,3.86-.08C119.61,196.76,126.53,202.89,131.47,212.51Z"/><path class="cls-6" d="M132,212.46l76-7a71.91,71.91,0,0,1-12.23,30.8c-9.66,13.66-39.11,15.78-56.18,14.22-.07-14.41-2.86-27.38-7.59-37C132,213.12,132,212.79,132,212.46Z"/><path class="cls-7" d="M138.58,266c.19-1.52.35-3,.49-4.6.32-3.69.47-7.33.46-10.87,17.07,1.56,46.52-.56,56.18-14.22a71.91,71.91,0,0,0,12.23-30.8l.13,0c2.54,16.53-3.71,34.38-12.21,46.4C186,265.8,155.46,267.72,138.58,266Z"/><path class="cls-7" d="M85.26,56.65c16.41-11.18,35.61-14.37,55.78-6.47-12,10.54-39.68,13.08-51.45,12.23C85.82,62.14,83.72,59.83,85.26,56.65Z"/><path class="cls-6" d="M56.14,219.45l27.76-2.56a93,93,0,0,0-8.75,24.68c-8.69-3.72-16.5-11-19.08-21.76C56.09,219.69,56.11,219.57,56.14,219.45Z"/><path class="cls-9" d="M139.07,261.36c-.14,1.55-.3,3.08-.49,4.6a41.68,41.68,0,0,1-9.42-1.83c-10.16-3.81-23.44-5.72-37.26-4.23A34.47,34.47,0,0,1,73,256.09c0-.17,0-.33,0-.5a115.82,115.82,0,0,1,2.08-14,33.9,33.9,0,0,0,16.6,2.75c13.83-1.49,27.1.42,37.26,4.23a45.43,45.43,0,0,0,10.52,1.94C139.54,254,139.39,257.67,139.07,261.36Z"/><path class="cls-7" d="M73,256.09c-11.37-5.81-20.48-18-17-36.28,2.58,10.76,10.39,18,19.08,21.76a115.82,115.82,0,0,0-2.08,14C73.06,255.76,73,255.92,73,256.09Z"/><path class="cls-6" d="M56.14,219.45c0,.12,0,.24-.07.36a3.58,3.58,0,0,1-.09-.35Z"/><path class="cls-7" d="M67.78,160.37A44.33,44.33,0,0,0,82,162a41.36,41.36,0,0,0,14-3.12,38.72,38.72,0,0,0,12-7.8,37.1,37.1,0,0,0,8.21-11.69c.8,5.62-1,11.23-4.11,15.95a31.45,31.45,0,0,1-13,10.89,31.77,31.77,0,0,1-16.68,2.8,24.74,24.74,0,0,1-15.1-6.78Z"/><path class="cls-5" d="M40.07,136.76a61.27,61.27,0,0,0,16.26,16,45.36,45.36,0,0,0,21.27,7.42,40.38,40.38,0,0,0,22.14-4.56,37.76,37.76,0,0,0,15.93-16.41l.91.41A37.79,37.79,0,0,1,101,157.87a41.91,41.91,0,0,1-23.62,6A47.1,47.1,0,0,1,54,156.39a53.69,53.69,0,0,1-9.58-7.79A64.58,64.58,0,0,1,36.76,139Z"/><path class="cls-5" d="M111.34,140.33a4.09,4.09,0,0,1,2.62-1.71,4.91,4.91,0,0,1,5.52,2.89,4.06,4.06,0,0,1,.09,3.13,5.78,5.78,0,0,0-8.23-4.31Z"/><path class="cls-10" d="M86.88,161.54c2.37,4.84,6.22,7.78,9.74,7,4-.94,6.19-6.39,5.47-12.76A40.41,40.41,0,0,1,86.88,161.54Z"/><path class="cls-11" d="M141.44,50.33C93.84,31.37,51.63,74.18,38.56,138c8.24,12.16,18.63,19.36,29.21,22.44,1.69,15.67-1.78,34.22-7.29,46.15C43.3,243.76,72.89,262,91.9,259.9c13.83-1.5,27.1.42,37.26,4.23s54.42,5.08,66.7-12.28,19.85-46.86,3.08-67c-17.36-20.83-19.41-41.47-16.36-72.72Z"/><path class="cls-12" d="M106.07,231.42c-10.09-.8-19.26-4.65-28.2-9.62A11,11,0,0,1,73.09,208c7.37-17.86,16.51-31.55,33.34-39.38C108.49,190,108.67,211,106.07,231.42Z"/><path class="cls-1" d="M123,228.09a3,3,0,0,1-2.52,2.3,78,78,0,0,1-14.43,1c2.6-20.4,2.42-41.41.36-62.83,2.9,2,5.54,4,8,6a4.84,4.84,0,0,0-.29,1.62,5,5,0,0,0,7,4.57c.61.61,1.19,1.23,1.75,1.84a4,4,0,0,1,1,2.24C125.84,201.78,125.88,216.45,123,228.09Z"/><g class="cls-13"><ellipse class="cls-14" cx="123.61" cy="218.88" rx="6.61" ry="5.51"/><ellipse class="cls-1" cx="123.61" cy="216.88" rx="6.61" ry="5.51"/><ellipse class="cls-15" cx="123.61" cy="216.88" rx="6.61" ry="5.51"/><ellipse class="cls-14" cx="114.3" cy="203.58" rx="3.02" ry="3.36"/><ellipse class="cls-1" cx="113.8" cy="203.08" rx="3.02" ry="3.36"/><ellipse class="cls-15" cx="113.8" cy="203.08" rx="3.02" ry="3.36"/></g><path class="cls-14" d="M105.45,191.43c0,1.78-1,3.22-2.26,3.22s-2.26-1.44-2.26-3.22,1-3.22,2.26-3.22S105.45,189.65,105.45,191.43ZM91.67,195.7c-4.56,0-8.26,3-8.26,6.8s3.7,6.79,8.26,6.79,8.26-3,8.26-6.79S96.24,195.7,91.67,195.7Zm5.43,19a5.78,5.78,0,1,0,6.09,5.77A5.93,5.93,0,0,0,97.1,214.72Z"/><path class="cls-1" d="M105,190.43c0,1.78-1,3.22-2.26,3.22s-2.26-1.44-2.26-3.22,1-3.22,2.26-3.22S105,188.65,105,190.43ZM91.17,194.7c-4.56,0-8.26,3-8.26,6.8s3.7,6.79,8.26,6.79,8.26-3,8.26-6.79S95.74,194.7,91.17,194.7Zm5.43,19a5.78,5.78,0,1,0,6.09,5.77A5.93,5.93,0,0,0,96.6,213.72Z"/><path class="cls-16" d="M123.88,184.85a4,4,0,0,0-1-2.24c-.56-.61-1.14-1.23-1.74-1.84a5,5,0,0,1-7-4.57,5.11,5.11,0,0,1,.29-1.62c-2.42-2-5-4-8-6-16.83,7.83-26,21.52-33.34,39.38a11,11,0,0,0,4.77,13.83c8.95,5,18.12,8.82,28.21,9.62a78,78,0,0,0,14.42-1,3,3,0,0,0,2.53-2.3C125.89,216.45,125.85,201.78,123.88,184.85Z"/><path class="cls-16" d="M123.88,184.85a4,4,0,0,0-1-2.24c-.56-.61-1.14-1.23-1.74-1.84a5,5,0,0,1-7-4.57,5.11,5.11,0,0,1,.29-1.62c-2.42-2-5-4-8-6-16.83,7.83-26,21.52-33.34,39.38a11,11,0,0,0,4.77,13.83c8.95,5,18.12,8.82,28.21,9.62a78,78,0,0,0,14.42-1,3,3,0,0,0,2.53-2.3C125.89,216.45,125.85,201.78,123.88,184.85Z"/><path class="cls-16" d="M106.08,231.42c2.59-20.4,2.42-41.41.36-62.83"/><path class="cls-6" d="M71.94,191.39c3.48,3.67,16.78,4.42,20.78-2.37a3,3,0,0,0-.14-3.19c-3.17-4.66-7.2-7.78-13.6-11.13"/><path class="cls-5" d="M71.94,191.39A10.84,10.84,0,0,0,77,193.05a22.82,22.82,0,0,0,5.29,0,18.2,18.2,0,0,0,2.55-.48,14.72,14.72,0,0,0,2.4-.81A9.15,9.15,0,0,0,91,188.91a5.31,5.31,0,0,0,.53-.83,1.6,1.6,0,0,0,.09-.66,1.55,1.55,0,0,0-.21-.67l-.7-1a31.39,31.39,0,0,0-3.37-4,87.14,87.14,0,0,0-8.35-7,30.13,30.13,0,0,1,10,5.15A23.69,23.69,0,0,1,93.06,184l.44.58.21.29.11.15.13.22a4.45,4.45,0,0,1,.34,4,5.66,5.66,0,0,1-.46.84c-.16.23-.3.46-.47.67a11,11,0,0,1-5.12,3.54,17.21,17.21,0,0,1-5.82,1,18.86,18.86,0,0,1-5.69-.85A9.34,9.34,0,0,1,71.94,191.39Z"/><path class="cls-6" d="M135.88,174.7c-8.21,6-14.19,10.14-20.38,17.45a2.92,2.92,0,0,0,.58,4.54c5.14,3.18,13.68,3.92,22.4,2.07"/><path class="cls-5" d="M135.88,174.7c-3.38,3.16-7,6.06-10.33,9.12-1.69,1.52-3.3,3.1-4.87,4.72q-1.17,1.22-2.28,2.49c-.37.43-.75.84-1.11,1.27l-.55.65-.13.15-.08.11c-.06.07-.09.15-.14.22a1.42,1.42,0,0,0,0,1.6,2.73,2.73,0,0,0,.89.66c.44.27.92.48,1.39.72a26.8,26.8,0,0,0,6.23,1.8,60.19,60.19,0,0,0,13.54.55,32.45,32.45,0,0,1-13.86,2,23.54,23.54,0,0,1-7.07-1.65c-.57-.27-1.14-.5-1.69-.82a4.93,4.93,0,0,1-1.81-1.44,4.19,4.19,0,0,1-.85-2.47,4.71,4.71,0,0,1,.66-2.41,4.32,4.32,0,0,1,.33-.5l.19-.23.14-.17.59-.66c.38-.44.78-.88,1.18-1.3.81-.85,1.65-1.67,2.51-2.47a62,62,0,0,1,5.38-4.48A113.87,113.87,0,0,1,135.88,174.7Z"/><path class="cls-7" d="M133,197.65c3.25.19,4.16-1.47,1-2.72-1.52-.59-4.24-1.31-10.34-1.7-.84,0-4.86-.16-4.21,1.59C120.21,196.86,130.74,197.52,133,197.65Z"/><path class="cls-7" d="M86.46,187.18c2.52-.12,2.58,1.58.29,2.82-2.45,1.32-8.39,2.33-11.11,1.59-2-.54-1.38-2.22,1.29-2.85A52.39,52.39,0,0,1,86.46,187.18Z"/><ellipse class="cls-5" cx="48.76" cy="139.02" rx="14.31" ry="6.57"/><ellipse class="cls-17" cx="39.49" cy="137.28" rx="3" ry="1.75" transform="translate(-23.24 8.94) rotate(-10)"/><path class="cls-7" d="M64.85,132.12c2.57-.56,5.17-1.06,7.76-1.59l7.81-1.47q7.83-1.45,15.7-2.76c5.24-.87,10.49-1.74,15.77-2.53s10.56-1.6,15.88-2.29c-5.06,1.38-10.16,2.66-15.26,3.91s-10.23,2.47-15.35,3.66-10.28,2.33-15.44,3.43L74,134.1c-2.6.5-5.19,1-7.8,1.5a2.57,2.57,0,0,1-2.92-1.33C62.91,133.33,63.63,132.39,64.85,132.12Z"/><path class="cls-5" d="M64.75,132.63q6.42-2.07,12.88-4l12.93-3.85,13-3.73c4.33-1.24,8.67-2.43,13-3.6q-6.36,2.28-12.74,4.49L91,126.25l-12.82,4.23c-4.28,1.38-8.57,2.74-12.87,4.05a1,1,0,0,1-.6-1.9Z"/><path class="cls-7" d="M65.78,135.92c1.91.15,3.83.35,5.74.53l5.74.65q5.71.71,11.44,1.5c3.81.58,7.62,1.09,11.42,1.72s7.61,1.25,11.4,2c-3.87,0-7.73-.16-11.58-.31s-7.7-.39-11.54-.57-7.69-.51-11.53-.8l-5.75-.5c-1.91-.21-3.82-.38-5.73-.62a1.7,1.7,0,0,1-1.36-2A1.74,1.74,0,0,1,65.78,135.92Z"/><path class="cls-5" d="M65.7,136.28q7.22-.32,14.42-.5l14.42-.32,14.42-.19q7.22-.08,14.43-.05-7.19.54-14.39,1L94.59,137l-14.4.71q-7.22.31-14.42.53a1,1,0,0,1-.07-2Z"/><path class="cls-5" d="M33.48,135.4c-2.79,0-5.58,0-8.37,0l-8.37-.2c-2.79-.11-5.58-.18-8.37-.32S2.79,134.6,0,134.4q4.19-.28,8.37-.46c2.79-.14,5.58-.22,8.37-.32l8.37-.2c2.79,0,5.58-.06,8.37,0a1,1,0,0,1,0,2Z"/><path class="cls-5" d="M33.65,144.59c-2.56.48-5.14.9-7.72,1.31L18.18,147c-2.6.33-5.18.7-7.78,1s-5.19.62-7.8.87c2.54-.64,5.09-1.22,7.64-1.79s5.11-1.1,7.67-1.65L25.6,144c2.57-.47,5.13-1,7.71-1.35a1,1,0,0,1,.34,2Z"/><ellipse class="cls-17" cx="97.72" cy="95.54" rx="4.2" ry="7.82"/><ellipse class="cls-5" cx="96.97" cy="94.29" rx="4.2" ry="7.82"/><ellipse class="cls-17" cx="98.27" cy="90.47" rx="1" ry="1.75" transform="translate(-7.51 8.91) rotate(-5)"/><ellipse class="cls-17" cx="75.72" cy="93.54" rx="4.2" ry="7.82"/><ellipse class="cls-5" cx="74.97" cy="92.29" rx="4.2" ry="7.82"/><ellipse class="cls-17" cx="76.27" cy="88.47" rx="1" ry="1.75" transform="translate(-7.42 6.98) rotate(-5)"/><path class="cls-6" d="M127.21,57.33c20.62-5.86,28.66-16.33,34.12-24.56,4-6,10.15-16.46,14-23a15,15,0,0,1,11.26-7.38c21.32-2.32,37.79,11.35,47,29.73l-.08,0a27.11,27.11,0,0,0-7.27-5.31c-4.63-2.12-6.64,0-4.93,4.79,1.11,3.13,5.47,14,1.24,14.13-15.86-18-36.46-6.53-52.62,11-2.66,2.88-5.2,5.92-7.58,9-5.51,6.54-9.81,12.41-11.86,15.25-1.5,2.07-4,6.86-3.74,11.23Z"/><path class="cls-7" d="M146.7,92.21l3.54,6.34A7.75,7.75,0,0,1,146.7,92.21Z"/><path class="cls-7" d="M162.3,65.73A141.46,141.46,0,0,0,151,82.89c22.33,19.15,39.93,24,61.74,14.55s20.13-37.06,13-47.5a39.36,39.36,0,0,0-3.25-4.2c4.23-.14-.13-11-1.24-14.13-1.71-4.79.3-6.91,4.93-4.79a27.11,27.11,0,0,1,7.27,5.31l.08,0c8.54,17.08,10.8,38.24,4.82,54.45-6.31,17.08-19.94,26.55-37.76,27.5s-35.71-5.94-50.36-15.49l-3.54-6.34c-.25-4.37,2.24-9.16,3.74-11.23C152.49,78.14,156.79,72.27,162.3,65.73Z"/><path class="cls-2" d="M169.88,56.71l.7-.2c-3,3.07-5.75,6.22-8.28,9.22C164.68,62.63,167.22,59.59,169.88,56.71Z"/><path class="cls-2" d="M170.58,56.51c29.89-8.73,46.94,16.77,42.15,40.93C190.92,106.9,173.32,102,151,82.89A141.46,141.46,0,0,1,162.3,65.73C164.83,62.73,167.62,59.58,170.58,56.51Z"/><path class="cls-3" d="M225.75,49.94c7.11,10.44,8.79,38-13,47.5,4.79-24.16-12.26-49.66-42.15-40.93,10.9-11.34,24-21.48,34.12-18.82,10.79,2.83,12.06,7.58,17.47,8h.33A39.36,39.36,0,0,1,225.75,49.94Z"/><path class="cls-3" d="M222.17,45.73c-5.41-.46-6.68-5.21-17.47-8-10.15-2.66-23.22,7.48-34.12,18.82l-.7.2c16.16-17.5,36.76-29,52.62-11Z"/><path class="cls-5" d="M127.21,57.33c1.38-.89,2.81-1.56,4.2-2.31l4.14-2.18c2.75-1.42,5.45-2.85,8-4.48a48.34,48.34,0,0,0,13.24-12.42c3.63-4.94,6.82-10.4,10.05-15.78L171.63,12l1.18-2c.39-.67.76-1.34,1.27-2.14a17.34,17.34,0,0,1,3.6-3.95,17.17,17.17,0,0,1,4.67-2.66A16.72,16.72,0,0,1,185,.48c.44-.1.89-.15,1.33-.22l1.25-.08L190,0c.83,0,1.66,0,2.48,0a39.32,39.32,0,0,1,5,.4A41.55,41.55,0,0,1,207,3a45.94,45.94,0,0,1,4.51,2.07c.74.39,1.43.84,2.15,1.25a21.65,21.65,0,0,1,2.08,1.34l2,1.42c.64.51,1.27,1,1.91,1.56l1,.78.9.84L223.37,14a63.51,63.51,0,0,1,6.32,7.5,71.51,71.51,0,0,1,9.09,17.19A76.94,76.94,0,0,1,243,77a52,52,0,0,1-6.61,18.44,41.19,41.19,0,0,1-13.77,14.07,44.88,44.88,0,0,1-9,4.12,52.19,52.19,0,0,1-9.61,2,66.23,66.23,0,0,1-9.75.24,72.2,72.2,0,0,1-9.62-1.17,75.52,75.52,0,0,1-18.27-6,77.53,77.53,0,0,1-16.14-10.15c11.3,5.7,22.89,10.48,35.05,12.67a68.65,68.65,0,0,0,9.15,1,63.42,63.42,0,0,0,9.15-.31,49.25,49.25,0,0,0,8.85-2,41.53,41.53,0,0,0,8.12-3.82,37.16,37.16,0,0,0,12.3-12.84,49.31,49.31,0,0,0,6-17,72.67,72.67,0,0,0-4.18-36.08A70.4,70.4,0,0,0,226.1,24a58.23,58.23,0,0,0-5.83-7l-1.65-1.55-.82-.78-.88-.72-1.75-1.43-1.84-1.31A19.65,19.65,0,0,0,211.44,10c-.64-.37-1.27-.79-1.93-1.14A44,44,0,0,0,205.44,7a37.34,37.34,0,0,0-8.62-2.36,35,35,0,0,0-4.46-.37c-.75,0-1.49-.07-2.24,0l-2.25.15-1.12.07c-.33,0-.67.07-1,.15a12.24,12.24,0,0,0-1.95.53,12.91,12.91,0,0,0-3.54,2,13.35,13.35,0,0,0-2.78,3c-.34.53-.75,1.23-1.15,1.92l-1.21,2-4.87,8.13c-3.32,5.4-6.55,10.82-10.45,16a54,54,0,0,1-6.54,7.25,51.72,51.72,0,0,1-7.8,5.9c-1.37.89-2.82,1.64-4.25,2.39a41.6,41.6,0,0,1-4.51,1.81A33.34,33.34,0,0,1,127.21,57.33Z"/><path class="cls-5" d="M219.73,42.92A28,28,0,0,0,211,39a23.08,23.08,0,0,0-9.06-.31,32.42,32.42,0,0,0-8.65,2.85,51.46,51.46,0,0,0-8,4.76,80,80,0,0,0-7.47,5.85c-2.45,2-4.74,4.29-7.07,6.51-4.59,4.53-9,9.3-13.52,14.13a75.73,75.73,0,0,1,10.35-17,76.65,76.65,0,0,1,6.73-7.48,73.36,73.36,0,0,1,7.83-6.5,51.18,51.18,0,0,1,9.07-5,31.17,31.17,0,0,1,10.31-2.35,23.41,23.41,0,0,1,5.35.39l1.3.28,1.28.4a17.91,17.91,0,0,1,2.46,1A21.09,21.09,0,0,1,219.73,42.92Z"/></g></g></svg>