<svg xmlns="http://www.w3.org/2000/svg" xmlns:xlink="http://www.w3.org/1999/xlink" viewBox="0 0 1000 780"><defs><style>.cls-1{fill:#f3f3f3;}.cls-2{fill:#f1f0f0;}.cls-3{fill:#cb6a79;}.cls-4{fill:#f2a8b5;}.cls-5{fill:#f7afbc;}.cls-6{fill:#dedceb;}.cls-7{fill:#e5e2e3;}.cls-8{fill:#cccccb;}.cls-9{fill:#503a33;}.cls-10{fill:#684f40;}.cls-11{fill:#885f46;}.cls-12{fill:#79563d;}.cls-13{fill:url(#radial-gradient);}.cls-14{fill:url(#radial-gradient-2);}.cls-15{fill:#896046;}.cls-16{fill:#523a34;}.cls-17{fill:#a37659;}.cls-18{fill:#a27559;}.cls-19{fill:#cb7c85;}.cls-20{fill:#e4919f;}.cls-21{fill:#d6b1a8;}.cls-22{fill:#edcdc8;}.cls-23{fill:#db8388;}.cls-24{fill:#e2ada3;}.cls-25{fill:#e598a5;}.cls-26{clip-path:url(#clip-path);}.cls-27{fill:#e6e6e5;}.cls-28{fill:none;stroke:#787979;stroke-linecap:square;stroke-miterlimit:10;stroke-width:1.55px;}.cls-29{fill:#d37f8e;}.cls-30{clip-path:url(#clip-path-2);}.cls-31{fill:#fff;}.cls-32{fill:#171717;}.cls-33{clip-path:url(#clip-path-3);}.cls-34{fill:#e48696;}.cls-35{clip-path:url(#clip-path-4);}.cls-36{fill:#855058;}.cls-37{clip-path:url(#clip-path-5);}.cls-38{fill:#ab7077;}.cls-39{fill:#d37f8d;}.cls-40{fill:#c67885;}.cls-41{fill:#aa6f77;}.cls-42{fill:#895f44;}</style><radialGradient id="radial-gradient" cx="493.85" cy="557.87" r="151.97" gradientTransform="translate(0 446.29) scale(1 0.2)" gradientUnits="userSpaceOnUse"><stop offset="0" stop-color="#503a33"/><stop offset="1" stop-color="#79563d"/></radialGradient><radialGradient id="radial-gradient-2" cx="749.49" cy="537.76" r="8.78" gradientTransform="translate(0 430.21) scale(1 0.2)" gradientUnits="userSpaceOnUse"><stop offset="0" stop-color="#503a33"/><stop offset="1" stop-color="#523c35"/></radialGradient><clipPath id="clip-path"><path class="cls-1" d="M480,411.07l.09-.12c18.64-15.82,31.7-36.16,41.42-58.92C574.14,417,509.73,432.54,480,411.07Z"/></clipPath><clipPath id="clip-path-2"><path class="cls-2" d="M605.3,273.43c-21.67,81.44-132.17,87.67-143.42,26.84-45.91,53.19-72.68,14.34-82.53-12.72C441.53,253.22,533.71,243.16,605.3,273.43Z"/></clipPath><clipPath id="clip-path-3"><ellipse class="cls-3" cx="412.73" cy="379.56" rx="74.55" ry="58.23"/></clipPath><clipPath id="clip-path-4"><path class="cls-4" d="M389.46,370.11c0,8.85-5.82,14.28-14.67,14.28s-14.66-4.85-14.66-13.7,4.9-14.08,14.66-14.08C385.66,356.61,389.46,362.56,389.46,370.11Z"/></clipPath><clipPath id="clip-path-5"><path class="cls-5" d="M450.47,373.3c0,12.86-8.76,23.28-19.57,23.28s-19.57-10.42-19.57-23.28c0-11.82,8.76-20.75,19.57-20.75S450.47,361.48,450.47,373.3Z"/></clipPath></defs><g id="Layer_2" data-name="Layer 2"><g id="Saving_for_Print" data-name="Saving for Print"><rect class="cls-6" width="1000" height="483.46"/><rect class="cls-7" y="483.46" width="1000" height="296.54"/><path class="cls-8" d="M861.91,552.49c51.77,13.13-1,24.41-31.54,24-18.39-.27-49.78,9-74.57,23.32-33.89,19.6-108.6,47.69-151.78,56C494.25,676.9,415.6,669.21,379,645.24c-53.09-34.78-154.88-48.42-219.4-69.22V552.49Z"/><path class="cls-9" d="M330.9,522.09C273.49,529.34,219.19,537,177.11,540c-29.94,2.18-42,26.41-18,35.72s162.28,20.53,194.78,39.42c17.49,10.17,30.08,13.53,42.2,16.61,84.63,21.53,215.15,18.76,285.75-5.71,33.29-11.53,65.4-28.9,74.56-35.15,9.57-6.52,28.16-14.15,44-15.69,18.25-1.79,42.62-9,50.11-11.45,10-3.25,20.54-13.41-6.5-23.82s-120.27-23.34-186.74-29.48S373.85,516.67,330.9,522.09Z"/><path class="cls-10" d="M354.53,531.52c-44.08-2.42-122.78,3.2-143.95,4.25-46.63,2.31-72,21.69-31.06,28.76,48.58,8.41,157.28,27.93,222.6,49.45,66.56,21.92,157.54,43.81,224.69,4.49,21.92-12.84,52.57-22.88,89.11-31.15,28-6.34,53.93-14.47,67.56-15.87,29.68-3.05,53.81-21,6.63-36.1-44.15-14.15-122.91-18.14-192-20.48S448.65,534.71,354.53,531.52Z"/><path class="cls-11" d="M316.68,536.13c-10,.66-30.58,2.55-47,5.09-21.88,3.41-23.48,19.3-.36,26.95,41.87,13.83,129.24,30.94,154,35.67s106.31,27.67,162.37,4c44.36-18.72,75.69-29.17,103.4-28,34.47,1.41,59.44-24.18,27.18-43-8.28-4.83-19.55-6.79-36.15-8.7C584,517.16,385.68,531.58,316.68,536.13Z"/><ellipse class="cls-12" cx="488.04" cy="557.47" rx="179.89" ry="34.16"/><ellipse class="cls-13" cx="493.85" cy="557.47" rx="152.37" ry="28.93"/><ellipse class="cls-14" cx="749.49" cy="537.69" rx="7.19" ry="5.42"/><ellipse class="cls-15" cx="784.88" cy="554.15" rx="11.15" ry="5.03"/><ellipse class="cls-10" cx="283.97" cy="551.3" rx="11.43" ry="6.17"/><ellipse class="cls-15" cx="221" cy="549.48" rx="9.23" ry="5.73"/><path class="cls-16" d="M201.44,544.35c-32.71-.11-35.61,12.26-1.59,15.84,1.81.19,2.47-.89,1.45-2.4-2.57-3.82-2.53-7.26,1.2-10.76C204,545.58,203.55,544.36,201.44,544.35Z"/><path class="cls-10" d="M826.49,543.47c21.38,3.7,23,13.78,0,17.64-1.13.19-1.72-.53-1.27-1.58,2.07-4.89,2.52-9.4,0-14.39C824.7,544,825.25,543.25,826.49,543.47Z"/><path class="cls-17" d="M683.06,569.51c38.66-5.64,36-24.76.71-29.53-1.91-.26-2.56.85-1.46,2.43,6.15,8.89,6.76,15.44-.69,24.6C680.26,568.69,680.92,569.83,683.06,569.51Z"/><path class="cls-18" d="M461.4,602.23c27.28,11.39,87.52,15,119.83-.29,2-1,1.88-1.6-.37-1.48-32.71,1.82-85.89,2.48-119.11.29C459.18,600.58,459,601.24,461.4,602.23Z"/><path class="cls-19" d="M717.72,365.8c2.32-1.83,4.6-3.66,7-5.32s4.84-3.35,7.2-4.82c1.2-.76,2.45-1.5,3.76-2.29a24.89,24.89,0,0,1,4.37-2.08,20.09,20.09,0,0,1,4.85-1,24.53,24.53,0,0,1,4.77,0,21.67,21.67,0,0,1,9.13,2.88,24.17,24.17,0,0,1,6.92,6.38,24.86,24.86,0,0,1,4.08,8.42,17.43,17.43,0,0,1-.24,9.8,15.37,15.37,0,0,1-6.24,7.78,17.68,17.68,0,0,1-4.46,2.1,19.56,19.56,0,0,1-4.82.83,15.63,15.63,0,0,1-5.06-.57,11.37,11.37,0,0,1-4.78-2.79,11.68,11.68,0,0,1-2.86-4.68,12.71,12.71,0,0,1-.59-5.35,10,10,0,0,1,.66-2.72,11.09,11.09,0,0,1,1.27-2.5,14.74,14.74,0,0,1,3.68-3.67,27.36,27.36,0,0,1,8.52-3.85,46.48,46.48,0,0,1,8.81-1.55,34.61,34.61,0,0,1,9.13.46,30.76,30.76,0,0,1,4.48,1.17c1.4.51,2.73,1,4.16,1.65a17.82,17.82,0,0,1,11.26,15.32,23.7,23.7,0,0,1-.92,9.57,18.43,18.43,0,0,1-5.27,8.49,15.58,15.58,0,0,1-4.44,2.79,19.59,19.59,0,0,1-4.87,1.3,15.94,15.94,0,0,1-5.23-.15,11.72,11.72,0,0,1-5.19-2.43,11.21,11.21,0,0,1-3.36-4.81,12.84,12.84,0,0,1-.69-5.48,15.26,15.26,0,0,1,1.34-5.14,13.42,13.42,0,0,1,3.25-4.44,12.48,12.48,0,0,1,2.4-1.62,13.39,13.39,0,0,1,2.64-1,18.2,18.2,0,0,1,5-.46c.79,0,1.54.07,2.25.13s1.54.18,2.3.28a32.63,32.63,0,0,1,4.51,1.11,34.91,34.91,0,0,1,8.23,3.95,48.13,48.13,0,0,1,6.88,5.53,57.37,57.37,0,0,1,5.94,6.41c3.63,4.54,6.39,9.91,6.71,15.84-3.43-4.58-6.48-9-10.07-13a52.82,52.82,0,0,0-5.85-5.53,46.29,46.29,0,0,0-6.5-4.6,29,29,0,0,0-7.06-3,26.42,26.42,0,0,0-3.69-.72l-1.88-.15c-.68-.05-1.32-.08-1.94-.09-2.49-.05-4.46.42-5.72,1.62a8.14,8.14,0,0,0-2.34,5.33,5.37,5.37,0,0,0,1.81,4.73c1.18,1,3.23,1.31,5.39,1a13.18,13.18,0,0,0,3.16-.85,8.88,8.88,0,0,0,2.56-1.63,11.84,11.84,0,0,0,3.32-5.48c1.35-4.34.87-9.64-1.49-13a12.88,12.88,0,0,0-5.22-4c-1.08-.51-2.37-1-3.58-1.44a24.62,24.62,0,0,0-3.54-1,28,28,0,0,0-7.44-.43,39.36,39.36,0,0,0-7.58,1.27,21.06,21.06,0,0,0-6.58,2.84,8.53,8.53,0,0,0-2.15,2.07l-.34.56a2.67,2.67,0,0,0-.25.58,3.6,3.6,0,0,0-.32,1.24,6.29,6.29,0,0,0,1.61,5,5.18,5.18,0,0,0,2.2,1.3,9.68,9.68,0,0,0,3.07.34,12.13,12.13,0,0,0,6.26-1.91A9.35,9.35,0,0,0,764,375.8a10.92,10.92,0,0,0,.09-6.37,18.75,18.75,0,0,0-3.17-6.25,16.81,16.81,0,0,0-5.28-4.43,14.14,14.14,0,0,0-6.43-1.57,14.42,14.42,0,0,0-6.35,1.32,29.45,29.45,0,0,0-5.74,4.31,67.58,67.58,0,0,0-5.74,5.57,60.2,60.2,0,0,0-4.88,6.18Z"/><path class="cls-19" d="M612,479.48c75.44-38.69,120.66-114.89,106.45-203.73,7.24,18.89,10.33,40.49,10.33,64.22,0,63-21.22,120.29-61.72,161.5A248,248,0,0,1,612,479.48Z"/><path class="cls-20" d="M718.41,275.75c14.21,88.84-31,165-106.45,203.73a247.57,247.57,0,0,1-72.55-60.05h-162a276.75,276.75,0,0,0-32,49.83c-58.93-37.64-83.12-103.33-30.26-195.45,62.77-57.35,167.3-81.16,230-81.16C648,192.65,698.67,224.16,718.41,275.75Z"/><path class="cls-21" d="M612,479.48a248,248,0,0,0,55.06,22c-39.6,40.3-97.64,65.25-172.29,65.25-71.64,0-128.91-17.16-168.64-47.57h0a277.31,277.31,0,0,1,19.25-49.88c38.77,24.78,92.59,37.4,149.38,37.4C538.13,506.66,578.09,496.85,612,479.48Z"/><path class="cls-22" d="M539.41,419.43A247.57,247.57,0,0,0,612,479.48c-33.87,17.37-73.83,27.18-117.23,27.18-56.79,0-110.61-12.62-149.38-37.4a276.75,276.75,0,0,1,32-49.83Z"/><path class="cls-19" d="M345.35,469.26a277.31,277.31,0,0,0-19.25,49.88h0C285,487.67,262.67,442,262.67,386.47c0-46.78,21-83.92,52.42-112.66C262.23,365.93,286.42,431.62,345.35,469.26Z"/><path class="cls-23" d="M553.93,384.07a105.22,105.22,0,0,0-8.48-10.79c16.4,21.56,17.25,42.54-3.44,49.25q4.37,5.14,9,10C571.29,425.19,570.24,407.59,553.93,384.07Z"/><path class="cls-24" d="M515.17,424.14c-11.1-1.23-24.48-6.39-39-14a62.55,62.55,0,0,1-10.49,10.39c21.21,10.68,40.94,15.81,57.83,15.78,11.68,0,20.77-1.34,27.51-3.79q-4.62-4.87-9-10C535.36,424.69,526.48,425.38,515.17,424.14Z"/><path class="cls-25" d="M515.17,424.14c-11.1-1.23-24.48-6.39-39-14-15.43-8-57.33-36.43-57.33-36.43v-52.5a330.56,330.56,0,0,1,44.27,6.48c49.66,11,66.33,24.53,82.3,45.5l.05.06C567.12,401.77,561.66,429.26,515.17,424.14Z"/><path class="cls-1" d="M480,411.07l.09-.12c18.64-15.82,31.7-36.16,41.42-58.92C574.14,417,509.73,432.54,480,411.07Z"/><g class="cls-26"><path class="cls-27" d="M480,411.07l0,0c18.7-15.83,31.78-36.2,41.53-59C545.88,406,519.33,423.25,480,411.07Z"/><polyline class="cls-28" points="539.22 375.56 503.2 370.34 522.78 403 496.88 400.03 504.69 421.34"/></g><path class="cls-29" d="M443.62,423.42c37-13.18,60.8-39.37,77.92-71.39-14.27,33.39-35.7,61.56-71.4,77.91Z"/><path class="cls-19" d="M605.3,273.43a73.74,73.74,0,0,1-1.66,12.39l-.73,3.08c-.28,1-.56,2.05-.87,3.06s-.68,2-1,3-.73,2-1.13,3a80.35,80.35,0,0,1-13.31,22.32,88.69,88.69,0,0,1-20,17.52A93,93,0,0,1,542,348.9a94,94,0,0,1-13.36,2.8,95.74,95.74,0,0,1-13.78.75,55.32,55.32,0,0,1-38.3-15.93,58.86,58.86,0,0,1-8.73-10.93,69.5,69.5,0,0,1-9.22-24.72l5.73,1.55L462,305.08c-.78.9-1.5,1.84-2.3,2.72s-1.55,1.81-2.33,2.71c-.4.45-.77.92-1.14,1.39l-1.2,1.36c-.8.9-1.56,1.86-2.36,2.79l-2.46,2.75c-.42.46-.82.94-1.23,1.42s-.87.9-1.31,1.36c-.89.9-1.76,1.83-2.69,2.71a49,49,0,0,1-13.26,9.3,34.47,34.47,0,0,1-17.8,3,32.79,32.79,0,0,1-16.88-7.09,44.17,44.17,0,0,1-10.43-12.92,56.7,56.7,0,0,1-5.69-14.22,51.14,51.14,0,0,1-1.59-14.83,100,100,0,0,0,7.81,11.53c.7.9,1.45,1.77,2.16,2.64s1.5,1.7,2.27,2.51a42.84,42.84,0,0,0,4.85,4.51,31.22,31.22,0,0,0,10.92,5.6c3.64,1,6.56,1.55,9.43,2.05a34.38,34.38,0,0,0,9.54.06,51.21,51.21,0,0,0,11.5-2.91,53.51,53.51,0,0,0,11.63-6.25A57.46,57.46,0,0,0,454.7,303c.82-.76,1.6-1.59,2.4-2.39l2.29-2.51,4.52-4.93,1.21,6.48a31.72,31.72,0,0,0,11.15,18.77c5.73,4.51,12.51,6.9,19.23,8.23a146.68,146.68,0,0,0,20.34,2.58,71.92,71.92,0,0,0,10.48-.05,84,84,0,0,0,10.54-1.39,92.26,92.26,0,0,0,39.4-18,94.41,94.41,0,0,0,8.48-7.47l2-2.05c.66-.7,1.27-1.43,1.95-2.13,1.28-1.43,2.57-2.89,3.76-4.43.61-.76,1.21-1.53,1.78-2.33s1.18-1.58,1.71-2.4,1.14-1.62,1.71-2.44l1.62-2.52Q602.41,278.93,605.3,273.43Z"/><path class="cls-2" d="M605.3,273.43c-21.67,81.44-132.17,87.67-143.42,26.84-45.91,53.19-72.68,14.34-82.53-12.72C441.53,253.22,533.71,243.16,605.3,273.43Z"/><g class="cls-30"><path class="cls-31" d="M605.3,273.43a73.74,73.74,0,0,1-1.66,12.39l-.73,3.08c-.28,1-.56,2.05-.87,3.06s-.68,2-1,3-.73,2-1.13,3a80.35,80.35,0,0,1-13.31,22.32,88.69,88.69,0,0,1-20,17.52A93,93,0,0,1,542,348.9a94,94,0,0,1-13.36,2.8,95.74,95.74,0,0,1-13.78.75,55.32,55.32,0,0,1-38.3-15.93,58.86,58.86,0,0,1-8.73-10.93,69.5,69.5,0,0,1-9.22-24.72l5.73,1.55L462,305.08c-.78.9-1.5,1.84-2.3,2.72s-1.55,1.81-2.33,2.71c-.4.45-.77.92-1.14,1.39l-1.2,1.36c-.8.9-1.56,1.86-2.36,2.79l-2.46,2.75c-.42.46-.82.94-1.23,1.42s-.87.9-1.31,1.36c-.89.9-1.76,1.83-2.69,2.71a49,49,0,0,1-13.26,9.3,34.47,34.47,0,0,1-17.8,3,32.79,32.79,0,0,1-16.88-7.09,44.17,44.17,0,0,1-10.43-12.92,56.7,56.7,0,0,1-5.69-14.22,51.14,51.14,0,0,1-1.59-14.83,100,100,0,0,0,7.81,11.53c.7.9,1.45,1.77,2.16,2.64s1.5,1.7,2.27,2.51a42.84,42.84,0,0,0,4.85,4.51,31.22,31.22,0,0,0,10.92,5.6c3.64,1,6.56,1.55,9.43,2.05a34.38,34.38,0,0,0,9.54.06,51.21,51.21,0,0,0,11.5-2.91,53.51,53.51,0,0,0,11.63-6.25A57.46,57.46,0,0,0,454.7,303c.82-.76,1.6-1.59,2.4-2.39l2.29-2.51,4.52-4.93,1.21,6.48a31.72,31.72,0,0,0,11.15,18.77c5.73,4.51,12.51,6.9,19.23,8.23a146.68,146.68,0,0,0,20.34,2.58,71.92,71.92,0,0,0,10.48-.05,84,84,0,0,0,10.54-1.39,92.26,92.26,0,0,0,39.4-18,94.41,94.41,0,0,0,8.48-7.47l2-2.05c.66-.7,1.27-1.43,1.95-2.13,1.28-1.43,2.57-2.89,3.76-4.43.61-.76,1.21-1.53,1.78-2.33s1.18-1.58,1.71-2.4,1.14-1.62,1.71-2.44l1.62-2.52Q602.41,278.93,605.3,273.43Z"/><circle class="cls-32" cx="447.46" cy="294.6" r="7.95"/><circle class="cls-32" cx="481.05" cy="293.43" r="12.95"/><circle class="cls-31" cx="443.27" cy="290.36" r="3.41"/><circle class="cls-31" cx="489.66" cy="286.04" r="5.93"/></g><path class="cls-32" d="M366.9,295c7.89-7.56,17-13.81,26.37-19.48,2.37-1.39,4.77-2.72,7.22-4l3.66-1.91c1.23-.63,2.47-1.21,3.71-1.81s2.48-1.22,3.74-1.78,2.53-1.09,3.79-1.63l3.82-1.61c1.27-.52,2.57-1,3.86-1.48a234.4,234.4,0,0,1,64.52-14.28,225.59,225.59,0,0,1,66,4.35c2.69.62,5.38,1.27,8,2s5.33,1.46,8,2.32l7.83,2.68c2.58,1,5.16,1.94,7.71,3,10.1,4.36,19.9,9.41,28.68,15.93a389,389,0,0,0-62.68-10.22,401.12,401.12,0,0,0-62,.08,427.15,427.15,0,0,0-61.42,9.28A435.54,435.54,0,0,0,366.9,295Z"/><ellipse class="cls-3" cx="412.73" cy="379.56" rx="74.55" ry="58.23"/><g class="cls-33"><ellipse class="cls-34" cx="412.73" cy="369.88" rx="76.04" ry="58.23"/></g><path class="cls-4" d="M389.46,370.11c0,8.85-5.82,14.28-14.67,14.28s-14.66-4.85-14.66-13.7,4.9-14.08,14.66-14.08C385.66,356.61,389.46,362.56,389.46,370.11Z"/><g class="cls-35"><ellipse class="cls-36" cx="374.39" cy="377.09" rx="15.68" ry="17.45"/></g><path class="cls-5" d="M450.47,373.3c0,12.86-8.76,23.28-19.57,23.28s-19.57-10.42-19.57-23.28c0-11.82,8.76-20.75,19.57-20.75S450.47,361.48,450.47,373.3Z"/><g class="cls-37"><path class="cls-36" d="M448.91,379.39c0,11.83-8.06,21.42-18,21.42s-18-9.59-18-21.42c0-10.87,8.06-19.09,18-19.09S448.91,368.52,448.91,379.39Z"/></g><path class="cls-38" d="M563.6,342.59a46.83,46.83,0,0,1,7.71,2.76,66.23,66.23,0,0,1,7.52,3.79,22.49,22.49,0,0,1,3.58,2.69,15.62,15.62,0,0,1,1.61,1.73l.76.95.66,1.05a16.09,16.09,0,0,1,2.24,9.83,21.79,21.79,0,0,1-3,8.73,55.11,55.11,0,0,1-4.77,6.94c-1.71,2.14-3.48,4.19-5.33,6.15-.9,1-1.85,1.94-2.78,2.9s-2,1.85-2.92,2.77a75.36,75.36,0,0,0,7.86-13.74c2.08-4.76,2.86-10.29,2.23-14.06,0-.48-.15-.91-.21-1.36l-.2-.62a2.66,2.66,0,0,0-.18-.61,16.29,16.29,0,0,0-1-2.39c-.38-.83-.9-1.7-1.38-2.69s-1.12-2-1.8-3.07a35.43,35.43,0,0,0-4.81-6.19C567.56,346.25,565.59,344.41,563.6,342.59Z"/><circle class="cls-39" cx="660.39" cy="355.14" r="14.03"/><circle class="cls-39" cx="653.3" cy="392.33" r="6.99"/><path class="cls-20" d="M477.2,206.33l-8,3.74c-4-9.19-10.34-18.27-17.12-23.52-5.15-4-12.8.62-18.45,9.51a9.4,9.4,0,0,1-1.36,1.67c-.87.73-1.74,1.42-2.6,2l-.07.05c-6.64,4.17-18.85,6.39-30.74,5-5.91-.68-3.92-6.06,2.05-9.54,5.37-3.15,14.64-10.31,38.74-16.67C464.49,172.08,472.24,190.85,477.2,206.33Z"/><path class="cls-40" d="M469.16,210.07a100.23,100.23,0,0,0-18-18.17c-4.16-3.07-8-3.52-11.48-.72-1.83,1.45-4.59,4.19-7.41,6.55a9.4,9.4,0,0,0,1.36-1.67c5.65-8.89,13.3-13.48,18.45-9.51C458.82,191.8,465.16,200.88,469.16,210.07Z"/><ellipse class="cls-39" cx="603.32" cy="210.77" rx="13.55" ry="33.46" transform="matrix(0.17, -0.98, 0.98, 0.17, 290.98, 768.33)"/><path class="cls-20" d="M677.37,201.29c-8.37,3.06-16.16,2.06-24.57-1.08a133.66,133.66,0,0,1-11.16-10.32c-3.68-4-9.08-10.84-20-12.36-12.53-1.74-14.92,5.56-15.35,12.53-.31,4.82.13,10.31,2,18.31a52.21,52.21,0,0,1-15.54-3.55c.58-23.26,8.22-36.29,17.73-44.61,10.19-8.9,35.73-7.36,42.86,4.75,8,13.59,8.48,27.32,17.45,28.23C681.25,194.25,688.86,197.09,677.37,201.29Z"/><path class="cls-41" d="M652.8,200.21a116.27,116.27,0,0,1-11.47-5.16c-13.32-6.71-23.05,2.35-25.77,13.51a67.15,67.15,0,0,1-7.22-.19c-1.91-8-2.35-13.49-2-18.31.43-7,2.82-14.27,15.35-12.53,10.91,1.52,16.31,8.39,20,12.36A133.66,133.66,0,0,0,652.8,200.21Z"/><path class="cls-12" d="M638.3,576.25c-32.19,9.27-87.47,15.37-150.26,15.37-63.67,0-119.62-6.28-151.58-15.75l40.93-8c14-2.29,30.92-8.34,40.84-8.34,6.1,0,16.47-3.62,21.09-6.85,6.18-4.32,13.63-4.32,20.7,1.78,5.58,4.81,14,5.54,23.52,5,23.45-15.39,60.9-18.4,86.57-4.53,19-.56,30.54,3.31,44,9.6Z"/><circle class="cls-42" cx="448.45" cy="562.84" r="5.37"/><ellipse class="cls-42" cx="529.66" cy="561.96" rx="19.62" ry="6.25"/></g></g></svg>